<svg width="399" height="359" viewBox="0 0 399 359" fill="none" xmlns="http://www.w3.org/2000/svg">
<g clip-path="url(#clip0_4_52)">
<path d="M190.2 158.6C194.8 168.5 207.1 173.9 217.6 170.7L307 143C312.6 141.3 316.6 137.5 318.4 132.8L327.1 110.8C327.1 110.9 327 111 327 111.1C328.8 106.9 328.8 101.9 326.6 97.1L287.9 13.1C283.3 3.1 271 -2.3 260.5 0.999998L171.1 28.7C165.5 30.4 161.5 34.3 159.7 38.9C159.7 38.9 159.7 38.9 159.7 38.8L151 60.8C149.3 65 149.4 69.8 151.6 74.5L190.2 158.6Z" fill="url(#paint0_linear_4_52)"/>
<path d="M260.5 0.999994C271 -2.30001 283.3 3.09999 287.9 13L326.6 97C331.2 106.9 326.3 117.7 315.8 120.9L226.4 148.6C215.8 151.9 203.6 146.5 199 136.5L160.3 52.5C155.7 42.6 160.6 31.8 171.1 28.6L260.5 0.999994Z" fill="url(#paint1_linear_4_52)"/>
<path d="M178.5 151.2C178.5 151.4 178.5 151.7 178.5 151.9C178.5 152 178.5 152.1 178.5 152.1C178.5 152.1 178.5 152.1 178.5 152.2C178.5 152.4 178.5 152.6 178.4 152.9C178.4 153.1 178.4 153.3 178.3 153.6C178.3 153.7 178.3 153.8 178.3 153.9C178.3 153.9 178.3 153.9 178.3 154C178.3 154.2 178.2 154.4 178.2 154.6C178.1 154.9 178.1 155.1 178 155.4C177.9 155.7 177.9 155.9 177.8 156.2C177.7 156.4 177.7 156.6 177.6 156.9C177.6 156.9 177.6 156.9 177.6 157V157.1C177.5 157.3 177.4 157.6 177.3 157.8C177.3 157.7 177.4 157.6 177.4 157.6C177.4 157.7 177.3 157.8 177.3 158L168.7 179.6C168.6 179.9 168.5 180.2 168.3 180.4C168.2 180.5 168.2 180.7 168.1 180.8C167.9 181.2 167.7 181.6 167.4 182C167.3 182.1 167.2 182.3 167.1 182.4C167 182.6 166.8 182.8 166.7 183C166.6 183.2 166.5 183.3 166.4 183.5C166.2 183.8 165.9 184.1 165.6 184.4C165.5 184.5 165.3 184.7 165.2 184.8C165.1 184.9 165 185 164.9 185.1C164.7 185.3 164.5 185.5 164.3 185.7C163.9 186.1 163.4 186.5 162.9 186.9C161.6 187.8 160.2 188.6 158.7 189.2C158.2 189.4 157.7 189.6 157.2 189.7L67.8 217.4C57.2 220.7 45 215.3 40.4 205.3L1.7 121C-0.500001 116.3 -0.500001 111.4 1.1 107.3L9.8 85.4C11.6 80.7 15.6 76.9 21.2 75.2L110.6 47.5C121.2 44.2 133.4 49.6 138 59.6L158.1 103.3L176.7 143.6C177.9 146.1 178.5 148.6 178.5 151.2Z" fill="url(#paint2_linear_4_52)"/>
<path d="M110.6 47.4C121.2 44.1 133.4 49.5 138 59.5L176.7 143.5C181.3 153.4 176.4 164.2 165.9 167.4L76.5 195.1C65.9 198.4 53.7 193 49.1 183L10.4 99C5.8 89.1 10.7 78.3 21.2 75.1L110.6 47.4Z" fill="url(#paint3_linear_4_52)"/>
<path d="M391.4 238L352.7 153.9C348.1 144 335.9 138.6 325.3 141.8L236 169.6C230.4 171.3 226.4 175.2 224.6 179.8L215.9 201.8C214.2 206 214.3 210.8 216.5 215.5L255.2 299.6C259.8 309.5 272.1 314.9 282.6 311.7L372 284C377.6 282.3 381.6 278.5 383.4 273.8L392.1 251.8C392.1 251.9 392 252 392 252.1C393.6 247.8 393.6 242.8 391.4 238Z" fill="url(#paint4_linear_4_52)"/>
<path d="M325.3 141.9C335.9 138.6 348.1 144 352.7 154L391.4 238.1C396 248 391.1 258.8 380.6 262L291.2 289.7C280.6 293 268.4 287.6 263.8 277.6L225.1 193.5C220.5 183.6 225.4 172.9 236 169.6L325.3 141.9Z" fill="url(#paint5_linear_4_52)"/>
<path d="M241.6 284.4L202.9 200.3C198.3 190.4 186.1 185 175.5 188.2L86.2 216C80.6 217.7 76.6 221.6 74.8 226.2C74.8 226.2 74.8 226.2 74.8 226.1L66.1 248.1C64.4 252.3 64.5 257.1 66.7 261.8L105.4 345.9C110 355.8 122.2 361.2 132.8 358L222.2 330.3C227.8 328.6 231.8 324.8 233.6 320.1L242.3 298.1C242.3 298.2 242.2 298.3 242.2 298.4C243.8 294.2 243.8 289.2 241.6 284.4Z" fill="url(#paint6_linear_4_52)"/>
<path d="M175.5 188.3C186.1 185 198.3 190.4 202.9 200.4L241.6 284.5C246.2 294.4 241.3 305.2 230.8 308.4L141.4 336.1C130.8 339.4 118.6 334 114 324L75.3 239.9C70.7 230 75.6 219.3 86.1 216L175.5 188.3Z" fill="url(#paint7_linear_4_52)"/>
<path opacity="0.05" d="M328.1 107.2C327.9 108.6 327.5 109.9 327 111.1C327 111.1 327 111 327.1 111C327.1 111.1 327 111.2 327 111.3L318.4 132.9C316.5 137.6 312.6 141.4 307 143.1L217.6 170.8C207 174.1 194.8 168.7 190.2 158.7L161.9 97.2L172.1 82.1L172.3 81.8C172.6 81.4 172.8 81 173.1 80.6C173.2 80.4 173.3 80.3 173.5 80.1C173.9 79.6 174.3 79 174.7 78.5C174.7 78.4 174.8 78.4 174.9 78.3C175.3 77.8 175.6 77.4 176 76.9C176.1 76.8 176.2 76.7 176.3 76.6C176.6 76.2 177 75.8 177.3 75.3C177.4 75.2 177.5 75 177.7 74.9C178 74.5 178.4 74.1 178.7 73.8C178.8 73.6 179 73.5 179.1 73.3C179.4 73 179.7 72.6 180.1 72.3C180.3 72.1 180.4 71.9 180.6 71.8C180.9 71.5 181.2 71.2 181.5 70.9C181.7 70.7 181.9 70.5 182.1 70.3C182.4 70 182.7 69.7 183 69.4C183.2 69.2 183.4 69 183.6 68.8C183.9 68.5 184.2 68.3 184.5 68C184.7 67.8 185 67.6 185.2 67.4C185.5 67.2 185.8 66.9 186.1 66.7C186.3 66.5 186.6 66.3 186.9 66.1C187.2 65.9 187.5 65.6 187.8 65.4C188.1 65.2 188.3 65 188.6 64.8C188.9 64.6 189.2 64.4 189.5 64.1C189.8 63.9 190.1 63.7 190.3 63.5C190.6 63.3 190.9 63.1 191.2 62.9C191.5 62.7 191.8 62.5 192.1 62.3C192.4 62.1 192.7 61.9 193.1 61.7C193.4 61.5 193.7 61.3 194 61.1C194.4 60.9 194.7 60.6 195.1 60.4C195.4 60.2 195.6 60.1 195.9 59.9C196.5 59.5 197.2 59.2 197.8 58.8C214.2 49.7 233.3 46.8 252.1 49.4C279.6 53.2 306.5 68.7 323.9 93.5C324.6 94.5 325.2 95.4 325.8 96.4C326.4 97.3 326.9 98.2 327.5 99C327.5 99.1 327.5 99.1 327.6 99.2C327.8 99.8 328 100.4 328.1 101C328.3 103 328.4 105.2 328.1 107.2Z" fill="black"/>
<path opacity="0.05" d="M378.1 280.7C376.3 282.1 374.3 283.2 371.9 284L310.5 303L309.3 284.1L282.6 243.7L275.3 233.1C265.5 235.9 255.1 236.9 244.8 236.2C244.8 236.2 234 242.2 227.5 239.6L224.3 232.6L216.4 215.5C214.2 210.8 214.2 205.9 215.8 201.8L224.4 180C224.6 179.6 224.7 179.2 224.9 178.8C225 178.7 225 178.5 225.1 178.4C225.1 178.3 225.2 178.3 225.2 178.2C225.4 177.8 225.7 177.3 226 176.9C226.2 176.7 226.3 176.5 226.4 176.3C226.5 176.1 226.7 176 226.8 175.8C226.9 175.7 227 175.6 227 175.5C227.4 175 227.9 174.5 228.4 174C228.5 173.9 228.7 173.7 228.8 173.6C229.2 173.3 229.5 173 229.9 172.7C230.1 172.6 230.2 172.4 230.4 172.3C230.6 172.2 230.8 172 231 171.9C231.2 171.8 231.4 171.7 231.6 171.5C231.8 171.4 232 171.3 232.2 171.2C232.4 171.1 232.7 171 232.9 170.8C233.1 170.7 233.3 170.6 233.5 170.5C233.7 170.4 233.9 170.3 234.1 170.2H234.2C234.4 170.1 234.6 170 234.9 170C235.2 169.9 235.4 169.8 235.7 169.7L325 142C330.1 140.4 335.6 140.9 340.4 142.8C340.4 143.5 340.4 144.2 340.4 144.8V145C340.4 145.8 340.4 146.7 340.4 147.5C340.4 147.7 340.4 147.8 340.4 148C340.4 148.9 340.3 149.7 340.3 150.6C340.3 150.8 340.3 151 340.3 151.2C340.2 152.1 340.2 153 340 153.8V153.9C339.9 154.7 339.8 155.6 339.7 156.4C339.7 156.6 339.6 156.8 339.6 157C339.5 157.8 339.3 158.7 339.2 159.5C339.2 159.7 339.1 159.9 339.1 160C338.9 160.8 338.8 161.6 338.6 162.5C338.6 162.5 338.6 162.6 338.6 162.7C338.4 163.5 338.2 164.4 338 165.2L337.9 165.7C337.7 166.5 337.4 167.3 337.2 168.1C337.1 168.3 337.1 168.4 337 168.6C336.7 169.4 336.5 170.1 336.2 170.9C336.2 171 336.2 171.1 336.1 171.1C335.8 171.9 335.5 172.7 335.2 173.5C335.1 173.7 335.1 173.8 335 174C334.7 174.8 334.4 175.5 334 176.3C333.9 176.4 333.9 176.6 333.8 176.7C333.5 177.4 333.1 178.1 332.8 178.9C332.8 179 332.7 179.1 332.7 179.2C332.3 180 331.9 180.7 331.5 181.5C331.4 181.7 331.3 181.8 331.2 182C330.8 182.7 330.4 183.5 329.9 184.2C329.8 184.3 329.8 184.4 329.7 184.5C329.3 185.2 328.9 185.8 328.4 186.5C328.4 186.6 328.3 186.7 328.3 186.7L328.2 186.8L328.1 186.9V187L317 203.4C316.8 203.7 316.7 203.9 316.5 204.1L321.6 211.3L321.7 211.4L325.1 209.5L367.1 266.1L378.1 280.7Z" fill="black"/>
<path opacity="0.05" d="M178.5 151.2C178.5 151.4 178.5 151.7 178.5 151.9C178.5 152 178.5 152.1 178.5 152.1C178.5 152.1 178.5 152.1 178.5 152.2C178.5 152.4 178.5 152.6 178.4 152.9C178.4 153.1 178.4 153.3 178.3 153.6C178.3 153.7 178.3 153.8 178.3 153.9C178.3 153.9 178.3 153.9 178.3 154C178.3 154.2 178.2 154.4 178.2 154.6C178.1 154.9 178.1 155.1 178 155.4C177.9 155.7 177.9 155.9 177.8 156.2C177.7 156.4 177.7 156.6 177.6 156.9C177.6 156.9 177.6 156.9 177.6 157V157.1C177.5 157.3 177.4 157.6 177.3 157.8C177.3 157.7 177.4 157.6 177.4 157.6C177.4 157.7 177.3 157.8 177.3 158L168.7 179.6C168.6 179.9 168.5 180.2 168.3 180.4C168.2 180.5 168.2 180.7 168.1 180.8C167.9 181.2 167.7 181.6 167.4 182C167.3 182.1 167.2 182.3 167.1 182.4C167 182.6 166.8 182.8 166.7 183C166.6 183.2 166.5 183.3 166.4 183.5C166.2 183.8 165.9 184.1 165.6 184.4C165.5 184.5 165.3 184.7 165.2 184.8C165.1 184.9 165 185 164.9 185.1C164.7 185.3 164.5 185.5 164.3 185.7C163.9 186.1 163.4 186.5 162.9 186.9C161.6 187.8 160.2 188.6 158.7 189.2C155.9 184.5 156.9 175.9 155 171.1C145.8 147.7 147.3 123.1 158.2 103.5L176.8 143.8C177.9 146.1 178.5 148.6 178.5 151.2Z" fill="black"/>
<path opacity="0.05" d="M216.6 230.1C196.9 222.9 178.8 209.6 166 191.3C166 191.3 166 191.2 165.9 191.2L175.5 188.2C186.1 184.9 198.3 190.3 202.9 200.3L216.6 230.1Z" fill="black"/>
<path d="M329.6 172.2C329.8 172 329.9 171.7 330.1 171.5L341.3 154.9L341.4 154.8C358.9 128.8 358.3 92.3 336.7 61.5C307.5 19.9 251 4.3 210.6 26.8C200 32.7 191.5 40.7 185.3 49.9L174.3 66.3C156.8 92.3 157.4 128.7 179 159.6C205.2 196.9 253.3 213.3 292.1 200.1L303.4 183.4L329.6 172.2ZM217 128C205.6 111.8 203.4 93.1 209.3 77.8C212 75.2 215.2 72.9 218.6 71C244.3 56.7 280.1 66.6 298.7 93C310.1 109.2 312.3 127.9 306.4 143.3C303.7 145.9 300.5 148.1 297.1 150.1C271.4 164.3 235.5 154.5 217 128Z" fill="url(#paint8_linear_4_52)"/>
<path d="M393.6 245.1L334.7 165.9L331.3 167.8L303.3 183.3L294.4 196.5L292.1 200L346.2 281.8C353.3 292.4 367.5 296.5 377.6 290.8C378.9 290.1 380.1 289.2 381.1 288.3C382.1 287.4 383 286.3 383.8 285.2L395 268.6V268.5C399.5 262 399.2 252.8 393.6 245.1Z" fill="url(#paint9_linear_4_52)"/>
<path d="M393.6 245.1L333.6 164.4C358.7 138.4 361.1 96.4 336.7 61.5C307.5 19.9 251 4.3 210.6 26.8C170.2 49.3 161.1 101.2 190.3 142.9C216.5 180.2 264.6 196.6 303.4 183.4L357.5 265.3C364.6 275.9 378.8 280 388.9 274.3C399.1 268.6 401.2 255.4 393.6 245.1ZM297.1 150.1C271.4 164.4 235.6 154.5 217 128.1C198.5 101.7 204.2 68.6 229.9 54.4C255.6 40.1 291.4 50 310 76.4C328.5 102.8 322.8 135.8 297.1 150.1Z" fill="url(#paint10_linear_4_52)"/>
<g opacity="0.5">
<path d="M306.4 143.3C303.7 145.9 300.5 148.1 297.1 150.1C271.4 164.4 235.6 154.5 217 128.1C205.6 111.9 203.4 93.2 209.3 77.9C212 75.3 215.2 73 218.6 71.1C244.3 56.8 280.1 66.7 298.7 93.1C310.1 109.2 312.3 128 306.4 143.3Z" fill="#29ABE2"/>
<path d="M297.1 150.1C271.4 164.4 235.6 154.5 217 128.1C198.5 101.7 204.2 68.6 229.9 54.4C255.6 40.1 291.4 50 310 76.4C328.5 102.8 322.8 135.8 297.1 150.1Z" fill="#29ABE2"/>
</g>
</g>
<defs>
<linearGradient id="paint0_linear_4_52" x1="159.702" y1="55.1998" x2="315.42" y2="115.299" gradientUnits="userSpaceOnUse">
<stop offset="8.15978e-07" stop-color="#097EB3"/>
<stop offset="1" stop-color="#036F9C"/>
</linearGradient>
<linearGradient id="paint1_linear_4_52" x1="174.868" y1="97.3894" x2="311.929" y2="52.2653" gradientUnits="userSpaceOnUse">
<stop stop-color="#47C1F5"/>
<stop offset="1" stop-color="#28A8DE"/>
</linearGradient>
<linearGradient id="paint2_linear_4_52" x1="29.9554" y1="78.3376" x2="150.18" y2="187.703" gradientUnits="userSpaceOnUse">
<stop offset="8.15978e-07" stop-color="#097EB3"/>
<stop offset="1" stop-color="#036F9C"/>
</linearGradient>
<linearGradient id="paint3_linear_4_52" x1="25.059" y1="143.829" x2="162.12" y2="98.7047" gradientUnits="userSpaceOnUse">
<stop stop-color="#47C1F5"/>
<stop offset="1" stop-color="#28A8DE"/>
</linearGradient>
<linearGradient id="paint4_linear_4_52" x1="231.493" y1="191.458" x2="372.912" y2="260.359" gradientUnits="userSpaceOnUse">
<stop offset="8.15978e-07" stop-color="#097EB3"/>
<stop offset="1" stop-color="#036F9C"/>
</linearGradient>
<linearGradient id="paint5_linear_4_52" x1="239.732" y1="238.308" x2="376.794" y2="193.184" gradientUnits="userSpaceOnUse">
<stop stop-color="#47C1F5"/>
<stop offset="1" stop-color="#28A8DE"/>
</linearGradient>
<linearGradient id="paint6_linear_4_52" x1="80.8835" y1="241.378" x2="229.943" y2="306.126" gradientUnits="userSpaceOnUse">
<stop offset="8.15978e-07" stop-color="#097EB3"/>
<stop offset="1" stop-color="#036F9C"/>
</linearGradient>
<linearGradient id="paint7_linear_4_52" x1="89.9231" y1="284.748" x2="226.984" y2="239.624" gradientUnits="userSpaceOnUse">
<stop stop-color="#47C1F5"/>
<stop offset="1" stop-color="#28A8DE"/>
</linearGradient>
<linearGradient id="paint8_linear_4_52" x1="171.183" y1="85.4384" x2="318.848" y2="128.156" gradientUnits="userSpaceOnUse">
<stop offset="5.55885e-07" stop-color="#D4F0FB"/>
<stop offset="1" stop-color="#A3DCFA"/>
</linearGradient>
<linearGradient id="paint9_linear_4_52" x1="317.353" y1="180.96" x2="376.162" y2="276.698" gradientUnits="userSpaceOnUse">
<stop offset="5.55885e-07" stop-color="#D4F0FB"/>
<stop offset="1" stop-color="#A3DCFA"/>
</linearGradient>
<linearGradient id="paint10_linear_4_52" x1="215.008" y1="46.3097" x2="401.135" y2="260.778" gradientUnits="userSpaceOnUse">
<stop offset="8.15978e-07" stop-color="#EEFDFA"/>
<stop offset="1" stop-color="#E1F2FD"/>
</linearGradient>
<clipPath id="clip0_4_52">
<rect width="398.1" height="359" fill="white"/>
</clipPath>
</defs>
</svg>
