<svg width="732" height="820" viewBox="0 0 732 820" fill="none" xmlns="http://www.w3.org/2000/svg">
<g clip-path="url(#clip0_2_27)">
<path d="M672.7 606.4L454.9 27.2C448.7 10.7 428.4 -1.4 409.6 0.100003L54.1 28.9C53.3 29 52.6 29.1 51.9 29.1C9.50001 33.6 -5.09999 64.9 1.50001 95.4L150.2 779.3C156.6 808.9 185.4 826.4 213.7 817.8L633 691.5C656.6 684.4 695.6 665 672.7 606.4Z" fill="#122226"/>
<path d="M650.4 662.7L231.1 789C202.8 797.5 174 780 167.6 750.5L19 66.5C14.9 47.6 30.9 30.7 54.2 28.8L409.6 0.100003C428.4 -1.4 448.7 10.7 454.9 27.2L672.7 606.4C681.8 630.7 672 656.1 650.4 662.7Z" fill="#22363D"/>
<path d="M205.3 57.3L325.4 46.3C329.3 45.9 331.6 42.9 330.5 39.6C329.4 36.3 325.3 33.8 321.4 34.2L201.8 44.6C197.6 45 194.9 48.1 195.9 51.6C196.8 55.2 201.1 57.7 205.3 57.3Z" fill="#12CADD"/>
<path d="M182.4 59.4C186.7 59 189.4 55.8 188.4 52.3C187.4 48.8 183.2 46.2 178.9 46.6C174.6 47 171.9 50.2 172.8 53.7C173.8 57.2 178.1 59.8 182.4 59.4Z" fill="#12CADD"/>
<path d="M636.9 617.7C646.3 606.2 648.9 588.3 642.5 570.7L453 54.8C446.4 36.8 425.5 23.6 406.3 25.3L373 28.3C369.4 28.6 366.5 30.1 364.7 32.4C364.6 32.5 364.6 32.5 364.5 32.6C364.4 32.7 364.4 32.7 364.3 32.8C364.2 32.9 364.2 32.9 364.1 33C364 33.1 364 33.1 363.9 33.2C363.8 33.3 363.8 33.3 363.7 33.4C363.6 33.5 363.6 33.5 363.5 33.6C363.4 33.7 363.4 33.7 363.3 33.8C363.2 33.9 363.2 33.9 363.1 34C363 34.1 363 34.1 362.9 34.2C362.8 34.3 362.8 34.3 362.7 34.4C362.6 34.5 362.6 34.5 362.5 34.6C362.4 34.7 362.4 34.7 362.3 34.8C362.2 34.9 362.2 34.9 362.1 35C362 35.1 362 35.1 361.9 35.2C361.8 35.3 361.8 35.3 361.7 35.4C361.6 35.5 361.6 35.5 361.5 35.6C361.4 35.7 361.4 35.7 361.3 35.8C361.2 35.9 361.2 35.9 361.1 36C361 36.1 361 36.1 360.9 36.2C360.8 36.3 360.8 36.3 360.7 36.4C360.6 36.5 360.6 36.5 360.5 36.6C360.4 36.7 360.4 36.7 360.3 36.8C360.2 36.9 360.2 36.9 360.1 37C360 37.1 360 37.1 359.9 37.2C359.8 37.3 359.8 37.3 359.7 37.4C359.6 37.5 359.6 37.5 359.5 37.6C359.4 37.7 359.4 37.7 359.3 37.8C359.2 37.9 359.2 37.9 359.1 38C359 38.1 359 38.1 358.9 38.2C358.8 38.3 358.8 38.3 358.7 38.4C358.6 38.5 358.6 38.5 358.5 38.6C358.4 38.7 358.4 38.7 358.3 38.8C358.2 38.9 358.2 38.9 358.1 39C358 39.1 358 39.1 357.9 39.2C357.8 39.3 357.8 39.3 357.7 39.4C357.6 39.5 357.6 39.5 357.5 39.6C357.4 39.7 357.4 39.7 357.3 39.8C357.2 39.9 357.2 39.9 357.1 40C357 40.1 357 40.1 356.9 40.2C356.8 40.3 356.8 40.3 356.7 40.4C356.6 40.5 356.6 40.5 356.5 40.6C356.4 40.7 356.4 40.7 356.3 40.8C356.2 40.9 356.2 40.9 356.1 41C356 41.1 356 41.1 355.9 41.2C355.8 41.3 355.8 41.3 355.7 41.4C355.6 41.5 355.6 41.5 355.5 41.6C355.4 41.7 355.4 41.7 355.3 41.8C355.2 41.9 355.2 41.9 355.1 42C355 42.1 355 42.1 354.9 42.2C354.8 42.3 354.8 42.3 354.7 42.4C352.3 45.1 351.5 49 352.9 53.2C353.1 53.8 353.2 54.4 353.3 55C353.1 55 352.8 55.1 352.6 55.1L177.5 72C170.3 72.7 162.9 68 161.3 61.7C159.2 53.8 150.2 48.1 141.2 48.9L102.4 52.4C90 53.5 79.9 59.1 73.8 67.2C73.7 67.3 66.1 77 66.1 77.1C60.6 84.3 58.4 93.4 60.6 103L196.7 699.4C203.6 729.6 232.1 748.2 259.5 740.3L612.2 638.9C619.1 636.9 624.8 632.9 629.1 627.6C629.2 627.6 636.8 617.8 636.9 617.7Z" fill="#12CADD"/>
<path opacity="0.7" d="M620.1 628.8L267.4 730.2C254.9 733.8 242.3 731.9 231.5 726C218.5 718.9 208.4 705.9 204.6 689.4L68.4 93C63.8 72.6 79.2 54.5 102.3 52.4L141.1 48.9C150.2 48.1 159.1 53.8 161.2 61.7C162.8 67.7 169.3 72.1 176 72.1C176.5 72.1 177 72.1 177.4 72L354.8 54.9C361.3 54.3 365 48.9 363 42.9C362.5 41.5 362.3 40.2 362.3 38.9C362.3 33.3 366.5 28.9 372.9 28.3L406.2 25.3C414.8 24.5 423.7 26.7 431.5 31C441.2 36.3 449.3 44.8 453 54.8L642.4 570.7C651.8 596.3 642 622.5 620.1 628.8Z" fill="#00FFFF"/>
<path opacity="0.3" d="M431.6 31C399.8 140.7 292.4 514.4 231.5 726C218.5 718.9 208.4 705.9 204.6 689.4L68.4 93C63.8 72.6 79.2 54.5 102.3 52.4L141.1 48.9C150.2 48.1 159.1 53.8 161.2 61.7C162.8 67.7 169.3 72.1 176 72.1C176.5 72.1 177 72.1 177.4 72L354.8 54.9C361.3 54.3 365 48.9 363 42.9C362.5 41.5 362.3 40.2 362.3 38.9C362.3 33.3 366.5 28.9 372.9 28.3L406.2 25.3C414.9 24.6 423.8 26.8 431.6 31Z" fill="#EDFCFC"/>
<path d="M622.6 491C610.9 496.4 598.6 499.9 586.3 501.4C586.6 501.3 586.8 501.2 587.1 501.1C590.2 499.7 593.2 498.1 596.1 496.5C608 489.8 618.8 481.1 628.1 470.9C637.4 460.7 645.1 449.1 651.3 436.7C657.6 424 662.2 410.3 665 396.3C668 381.8 669.2 366.8 668.6 351.9C668 336.3 665.5 320.7 661.1 305.7C656.7 290.5 650.6 275.7 642.7 261.9C635.1 248.6 626 236.2 615.6 225.2C605.4 214.5 594 205 581.5 197.3C569.3 189.7 556 183.8 542.2 180.1C528.3 176.4 513.9 174.8 499.7 175.7C504.5 173.9 509.4 172.4 514.5 171.1C592.4 152.1 670.7 210.6 695.4 296.1C718.7 376.4 687.8 460.8 622.6 491Z" fill="#12CADD"/>
<path d="M500.2 126.4C497.5 126.9 463.8 133.9 463.6 133.9C427.1 141.1 393.2 161.5 367.5 195.5C296.5 289.5 317.5 409.1 418.3 514L456.3 503.5C357 399.1 336.4 280.4 406.4 187.2C431.5 153.8 464.6 133.7 500.2 126.4Z" fill="#112123"/>
<path d="M407.9 536.3C377.2 598.7 345.1 662.4 313.6 728.2C293.4 770.3 311.4 810.3 350.9 818.5C364.1 821.3 377.3 820.1 389.5 815.8C389.8 815.7 390 815.6 390.3 815.5C390.6 815.4 390.8 815.3 391.1 815.2C391.4 815.1 391.6 815 391.9 814.9C392.2 814.8 392.4 814.7 392.7 814.6C393 814.5 393.2 814.4 393.5 814.3C393.8 814.2 394 814.1 394.3 814C394.6 813.9 394.8 813.8 395.1 813.7C395.4 813.6 395.6 813.5 395.9 813.4C396.2 813.3 396.4 813.2 396.7 813.1C397 813 397.2 812.9 397.5 812.8C397.8 812.7 398 812.6 398.3 812.5C398.6 812.4 398.8 812.3 399.1 812.2C399.4 812.1 399.6 812 399.9 811.9C400.2 811.8 400.4 811.7 400.7 811.6C401 811.5 401.2 811.4 401.5 811.3C401.8 811.2 402 811.1 402.3 811C402.6 810.9 402.8 810.8 403.1 810.7C403.4 810.6 403.6 810.5 403.9 810.4C404.2 810.3 404.4 810.2 404.7 810.1C405 810 405.2 809.9 405.5 809.8C405.8 809.7 406 809.6 406.3 809.5C406.6 809.4 406.8 809.3 407.1 809.2C407.4 809.1 407.6 809 407.9 808.9C408.1 808.8 408.4 808.7 408.7 808.6C409 808.5 409.2 808.4 409.5 808.3C409.7 808.2 410 808.1 410.3 808C410.6 807.9 410.8 807.8 411.1 807.7C411.3 807.6 411.6 807.5 411.8 807.4C412.1 807.3 412.3 807.2 412.6 807.1C412.8 807 413.1 806.9 413.3 806.8C413.6 806.7 413.8 806.6 414.1 806.5C414.3 806.4 414.6 806.3 414.8 806.3C415.1 806.2 415.3 806.1 415.6 806C415.8 805.9 416.1 805.8 416.3 805.8C416.5 805.7 416.8 805.6 417.1 805.5C417.3 805.4 417.6 805.3 417.8 805.3C418 805.2 418.3 805.1 418.6 805C418.8 804.9 419.1 804.8 419.3 804.8C419.5 804.7 419.8 804.6 420 804.5C420.2 804.4 420.5 804.3 420.7 804.3C420.9 804.2 421.2 804.1 421.4 804C421.6 803.9 421.9 803.8 422.1 803.8C422.3 803.7 422.6 803.6 422.8 803.5C423 803.4 423.3 803.3 423.5 803.3C423.7 803.2 424 803.1 424.2 803C424.4 802.9 424.7 802.8 424.9 802.8C425.1 802.7 425.4 802.6 425.6 802.6C425.8 802.5 426.1 802.4 426.3 802.4C426.5 802.3 426.8 802.2 427 802.2C427.2 802.1 427.5 802 427.7 802H427.8C416 806 403.2 807.1 390.5 804.3C351.6 796 333.9 756.3 353.8 714.5C384.9 649.3 416.5 586.1 446.8 524.2C450.4 516.8 453.8 509.2 457.1 502.1L419.1 512.6C415 521.1 411.6 528.8 407.9 536.3Z" fill="#0A1416"/>
<path d="M509.8 501.7C496.9 495.7 479.4 494.1 456.3 503.5C453 510.6 449.6 518.1 446 525.6C415.7 587.5 384.1 650.6 353 715.9C334.2 755.3 349 792.9 383.4 804C385.4 804.7 387.5 805.2 389.7 805.7C427 813.7 465 789.6 478.4 750.2C485.6 729.2 491.5 707.9 497.9 686.8C512.9 637.4 527.8 588.3 542.4 540.2C542.5 540.1 534.1 513 509.8 501.7Z" fill="#1E3036"/>
<path d="M542.5 540.1C541.4 543.6 540.3 547.2 539.3 550.7C551.3 549.7 562.6 547.6 573.1 544.6C573.3 544.5 606.9 534.8 608.1 534.4C588.7 539.8 566.9 542.1 542.5 540.1Z" fill="#0FACBD"/>
<path opacity="0.05" d="M526.1 513.4C512.1 510.1 498.3 504.5 485.3 496.8C476.8 497 467.3 499.1 456.4 503.5C455.5 505.3 454.7 507.2 453.8 509.1C454.7 507.2 455.5 505.3 456.4 503.5L418.3 514C415.9 519.2 413.4 524.6 410.9 530L411.6 530.2L447.7 521.9H447.8C448.7 520.1 449.5 518.3 450.3 516.5C449.5 518.3 448.6 520.1 447.7 522C493.5 553.4 536 550.6 539.2 550.7C540.7 545.7 540.9 545 542.4 540C542.5 540 538 525.6 526.1 513.4Z" fill="black"/>
<path d="M645.8 166.5C569 103.9 465.9 108.1 406.4 187.2C336.4 280.4 357 399.1 456.3 503.5C505 538.9 542.5 540.1 542.5 540.1C652.5 549.2 710.7 471.5 726.1 401.9C744.5 318.1 713.6 221.8 645.8 166.5ZM622.6 491C551.7 523.9 462.6 484.3 425.8 393.7C386 295.6 428.3 192.1 514.5 171.1C592.4 152.1 670.7 210.6 695.5 296.1C718.7 376.4 687.8 460.8 622.6 491Z" fill="#22363D"/>
<g opacity="0.6">
<path d="M665 396.2C662.1 410.2 657.5 423.9 651.3 436.6C645.2 449.1 637.4 460.7 628.1 470.8C618.8 481 608 489.7 596.1 496.4C593.2 498.1 590.1 499.6 587.1 501C586.8 501.1 586.6 501.2 586.3 501.3C591.5 500.6 596.6 499.7 601.7 498.3C535.1 515.6 459.1 475.4 425.8 393.5C388.4 301.3 423.6 204.1 499.7 175.4C513.9 174.5 528.3 176.1 542.2 179.8C556 183.5 569.2 189.4 581.5 197C594 204.7 605.4 214.2 615.6 224.9C626.1 235.9 635.2 248.3 642.7 261.6C650.5 275.4 656.7 290.1 661.1 305.4C665.4 320.4 668 336 668.6 351.6C669.2 366.7 668 381.7 665 396.2Z" fill="#00FFFF"/>
<path d="M622.6 491C551.7 523.9 462.6 484.4 425.8 393.7C386 295.6 428.3 192.1 514.5 171.1C592.4 152.1 670.7 210.6 695.4 296.1C718.7 376.4 687.8 460.8 622.6 491Z" fill="#00FFFF"/>
</g>
</g>
<defs>
<clipPath id="clip0_2_27">
<rect width="731.3" height="820" fill="white"/>
</clipPath>
</defs>
</svg>
